:version	1.10
:name	0101
:units
	mass	kg
	length	m
	angle	deg
:documentation
	fps:30
:root
	axis	XYZ
	order	TX	TY	TZ	RX	RY	RZ
	position	0.00	0.00	0.00
	orientation	0.00	0.00	0.00
:bonedata
	begin
		id	1
		name	Head
		direction	-18.5	116.2	-38.8
		length	123.9
		axis	0.0	0.0	0.0	XYZ
		dof	rx	ry	rz
		limits	(-inf	inf)
			(-inf	inf)
			(-inf	inf)
	end
	begin
		id	2
		name	Neck
		direction	-1.6	89.5	-15.3
		length	90.8
		axis	0.0	0.0	0.0	XYZ
		dof	rx	ry	rz
		limits	(-inf	inf)
			(-inf	inf)
			(-inf	inf)
	end
	begin
		id	3
		name	LeftCollar
		direction	-5.0	276.0	-47.2
		length	280.1
		axis	0.0	0.0	0.0	XYZ
		dof	rx	ry	rz
		limits	(-inf	inf)
			(-inf	inf)
			(-inf	inf)
	end
	begin
		id	4
		name	Torso
		direction	4.0	199.4	8.5
		length	199.7
		axis	0.0	0.0	0.0	XYZ
		dof	rx	ry	rz
		limits	(-inf	inf)
			(-inf	inf)
			(-inf	inf)
	end
	begin
		id	5
		name	LeftShoulder
		direction	170.7	-14.1	-44.7
		length	177.0
		axis	0.0	0.0	0.0	XYZ
		dof	rx	ry	rz
		limits	(-inf	inf)
			(-inf	inf)
			(-inf	inf)
	end
	begin
		id	6
		name	RightShoulder
		direction	-174.2	6.3	52.4
		length	182.0
		axis	0.0	0.0	0.0	XYZ
		dof	rx	ry	rz
		limits	(-inf	inf)
			(-inf	inf)
			(-inf	inf)
	end
	begin
		id	7
		name	LeftElbow
		direction	55.3	-271.7	26.6
		length	278.5
		axis	0.0	0.0	0.0	XYZ
		dof	rx	ry	rz
		limits	(-inf	inf)
			(-inf	inf)
			(-inf	inf)
	end
	begin
		id	8
		name	RightElbow
		direction	-37.0	-268.0	66.2
		length	278.5
		axis	0.0	0.0	0.0	XYZ
		dof	rx	ry	rz
		limits	(-inf	inf)
			(-inf	inf)
			(-inf	inf)
	end
	begin
		id	9
		name	LeftWrist
		direction	69.1	-260.5	-128.7
		length	298.7
		axis	0.0	0.0	0.0	XYZ
		dof	rx	ry	rz
		limits	(-inf	inf)
			(-inf	inf)
			(-inf	inf)
	end
	begin
		id	10
		name	RightWrist
		direction	-79.9	-277.4	-76.9
		length	298.7
		axis	0.0	0.0	0.0	XYZ
		dof	rx	ry	rz
		limits	(-inf	inf)
			(-inf	inf)
			(-inf	inf)
	end
	begin
		id	11
		name	LeftHand
		direction	13.8	-52.1	-25.7
		length	59.7
		axis	0.0	0.0	0.0	XYZ
		dof	rx	ry	rz
		limits	(-inf	inf)
			(-inf	inf)
			(-inf	inf)
	end
	begin
		id	12
		name	RightHand
		direction	-16.0	-55.5	-15.4
		length	59.7
		axis	0.0	0.0	0.0	XYZ
		dof	rx	ry	rz
		limits	(-inf	inf)
			(-inf	inf)
			(-inf	inf)
	end
	begin
		id	13
		name	LeftHip
		direction	117.3	-70.1	12.8
		length	137.3
		axis	0.0	0.0	0.0	XYZ
		dof	rx	ry	rz
		limits	(-inf	inf)
			(-inf	inf)
			(-inf	inf)
	end
	begin
		id	14
		name	RightHip
		direction	-108.5	-76.7	41.0
		length	139.0
		axis	0.0	0.0	0.0	XYZ
		dof	rx	ry	rz
		limits	(-inf	inf)
			(-inf	inf)
			(-inf	inf)
	end
	begin
		id	15
		name	LeftKnee
		direction	-0.2	-428.3	-95.5
		length	438.9
		axis	0.0	0.0	0.0	XYZ
		dof	rx	ry	rz
		limits	(-inf	inf)
			(-inf	inf)
			(-inf	inf)
	end
	begin
		id	16
		name	RightKnee
		direction	16.9	-434.8	-56.9
		length	438.9
		axis	0.0	0.0	0.0	XYZ
		dof	rx	ry	rz
		limits	(-inf	inf)
			(-inf	inf)
			(-inf	inf)
	end
	begin
		id	17
		name	LeftAnkle
		direction	51.1	-389.3	75.6
		length	399.8
		axis	0.0	0.0	0.0	XYZ
		dof	rx	ry	rz
		limits	(-inf	inf)
			(-inf	inf)
			(-inf	inf)
	end
	begin
		id	18
		name	RightAnkle
		direction	-36.9	-388.8	85.6
		length	399.8
		axis	0.0	0.0	0.0	XYZ
		dof	rx	ry	rz
		limits	(-inf	inf)
			(-inf	inf)
			(-inf	inf)
	end
:hierarchy
	begin
		Neck	Head
		LeftCollar	Neck	LeftShoulder	RightShoulder
		Torso	LeftCollar
		root	Torso	LeftHip	RightHip
		LeftShoulder	LeftElbow
		RightShoulder	RightElbow
		LeftElbow	LeftWrist
		RightElbow	RightWrist
		LeftWrist	LeftHand
		RightWrist	RightHand
		LeftHip	LeftKnee
		RightHip	RightKnee
		LeftKnee	LeftAnkle
		RightKnee	RightAnkle
	end

:FULLY-SPECIFIED
:DEGREES
254
Head	-7.65	15.66	0.10
Neck	-7.65	15.66	0.10
LeftCollar	-7.65	15.66	0.10
Torso	-7.65	15.66	0.10
root	133.12	22.13	2739.96	-4.20	6.90	0.08
LeftShoulder	20.92	-11.80	-73.21
RightShoulder	23.56	18.18	78.21
LeftElbow	23.76	29.85	-56.38
RightElbow	22.77	-11.16	65.82
LeftWrist	24.02	30.85	-55.87
RightWrist	22.84	-12.01	65.45
LeftHand	24.02	30.85	-55.87
RightHand	22.84	-12.01	65.45
LeftHip	4.96	34.00	2.03
RightHip	0.41	-15.13	2.57
LeftKnee	-7.91	34.00	2.03
RightKnee	-4.59	-15.13	2.57
LeftAnkle	-7.91	34.00	2.03
RightAnkle	-4.59	-15.13	2.57
255
Head	-7.56	15.40	0.18
Neck	-7.56	15.40	0.18
LeftCollar	-7.56	15.40	0.18
Torso	-7.56	15.40	0.18
root	133.12	22.54	2739.97	-4.19	7.20	0.22
LeftShoulder	18.48	-11.89	-69.66
RightShoulder	29.89	19.81	77.06
LeftElbow	20.88	29.52	-55.08
RightElbow	28.49	-10.53	60.37
LeftWrist	21.07	30.37	-54.70
RightWrist	28.57	-11.37	59.91
LeftHand	21.07	30.37	-54.70
RightHand	28.57	-11.37	59.91
LeftHip	4.78	35.09	1.92
RightHip	0.30	-15.27	2.46
LeftKnee	-7.83	35.09	1.92
RightKnee	-4.70	-15.27	2.46
LeftAnkle	-7.83	35.09	1.92
RightAnkle	-4.70	-15.27	2.46
256
Head	-7.56	15.40	0.18
Neck	-7.56	15.40	0.18
LeftCollar	-7.56	15.40	0.18
Torso	-7.56	15.40	0.18
root	133.12	22.54	2739.97	-4.19	7.20	0.22
LeftShoulder	18.48	-11.89	-69.66
RightShoulder	29.89	19.81	77.06
LeftElbow	20.88	29.52	-55.08
RightElbow	28.49	-10.53	60.37
LeftWrist	21.07	30.37	-54.70
RightWrist	28.57	-11.37	59.91
LeftHand	21.07	30.37	-54.70
RightHand	28.57	-11.37	59.91
LeftHip	4.78	35.09	1.92
RightHip	0.30	-15.27	2.46
LeftKnee	-7.83	35.09	1.92
RightKnee	-4.70	-15.27	2.46
LeftAnkle	-7.83	35.09	1.92
RightAnkle	-4.70	-15.27	2.46
257
Head	-7.50	14.73	0.37
Neck	-7.50	14.73	0.37
LeftCollar	-7.50	14.73	0.37
Torso	-7.50	14.73	0.37
root	133.12	22.84	2739.97	-4.19	7.61	0.33
LeftShoulder	15.28	-11.21	-66.39
RightShoulder	34.31	21.51	74.48
LeftElbow	17.23	29.22	-54.74
RightElbow	31.90	-7.15	56.00
LeftWrist	17.34	29.83	-54.52
RightWrist	31.94	-7.56	55.74
LeftHand	17.34	29.83	-54.52
RightHand	31.94	-7.56	55.74
LeftHip	4.58	36.16	1.76
RightHip	0.35	-15.34	2.41
LeftKnee	-7.88	36.16	1.76
RightKnee	-4.65	-15.34	2.41
LeftAnkle	-7.88	36.16	1.76
RightAnkle	-4.65	-15.34	2.41
258
Head	-7.26	14.98	0.38
Neck	-7.26	14.98	0.38
LeftCollar	-7.26	14.98	0.38
Torso	-7.26	14.98	0.38
root	133.28	23.03	2739.64	-4.26	7.95	0.50
LeftShoulder	14.79	-10.99	-62.87
RightShoulder	33.93	22.83	71.79
LeftElbow	16.55	28.41	-51.94
RightElbow	31.22	-6.88	53.01
LeftWrist	16.63	28.88	-51.78
RightWrist	31.25	-7.29	52.76
LeftHand	16.63	28.88	-51.78
RightHand	31.25	-7.29	52.76
LeftHip	4.31	37.01	1.54
RightHip	0.34	-15.34	2.29
LeftKnee	-8.00	37.01	1.54
RightKnee	-4.66	-15.34	2.29
LeftAnkle	-8.00	37.01	1.54
RightAnkle	-4.66	-15.34	2.29
259
Head	-6.81	15.27	0.26
Neck	-6.81	15.27	0.26
LeftCollar	-6.81	15.27	0.26
Torso	-6.81	15.27	0.26
root	133.40	23.75	2739.00	-4.04	8.72	0.96
LeftShoulder	21.70	-10.70	-58.69
RightShoulder	36.77	25.85	65.44
LeftElbow	24.24	27.78	-42.62
RightElbow	32.61	-1.33	46.54
LeftWrist	24.34	28.19	-42.41
RightWrist	32.61	-1.16	46.65
LeftHand	24.34	28.19	-42.41
RightHand	32.61	-1.16	46.65
LeftHip	3.58	39.06	1.07
RightHip	0.27	-15.31	2.07
LeftKnee	-8.66	39.06	1.07
RightKnee	-4.73	-15.31	2.07
LeftAnkle	-8.66	39.06	1.07
RightAnkle	-4.73	-15.31	2.07
260
Head	-6.60	15.14	0.29
Neck	-6.60	15.14	0.29
LeftCollar	-6.60	15.14	0.29
Torso	-6.60	15.14	0.29
root	133.50	19.55	2738.60	-3.98	9.09	1.31
LeftShoulder	21.61	-9.76	-55.52
RightShoulder	38.17	27.38	61.36
LeftElbow	24.27	28.03	-39.72
RightElbow	33.29	1.15	42.24
LeftWrist	24.34	28.31	-39.57
RightWrist	33.30	1.57	42.51
LeftHand	24.34	28.31	-39.57
RightHand	33.30	1.57	42.51
LeftHip	3.34	39.98	0.89
RightHip	0.20	-15.15	1.73
LeftKnee	-9.27	39.98	0.89
RightKnee	-4.80	-15.15	1.73
LeftAnkle	-9.27	39.98	0.89
RightAnkle	-4.80	-15.15	1.73
261
Head	-6.43	14.77	0.29
Neck	-6.43	14.77	0.29
LeftCollar	-6.43	14.77	0.29
Torso	-6.43	14.77	0.29
root	133.72	16.07	2738.24	-4.08	7.88	1.71
LeftShoulder	21.11	-9.38	-51.92
RightShoulder	41.67	28.97	58.67
LeftElbow	23.81	28.35	-36.48
RightElbow	35.63	3.10	37.57
LeftWrist	23.87	28.58	-36.36
RightWrist	35.65	3.57	37.91
LeftHand	23.87	28.58	-36.36
RightHand	35.65	3.57	37.91
LeftHip	3.72	39.39	1.03
RightHip	0.43	-16.63	1.55
LeftKnee	-9.64	39.39	1.03
RightKnee	-5.75	-16.63	1.55
LeftAnkle	-9.64	39.39	1.03
RightAnkle	-5.75	-16.63	1.55
262
Head	-6.43	14.77	0.29
Neck	-6.43	14.77	0.29
LeftCollar	-6.43	14.77	0.29
Torso	-6.43	14.77	0.29
root	133.72	16.07	2738.24	-4.08	7.88	1.71
LeftShoulder	21.11	-9.38	-51.92
RightShoulder	41.67	28.97	58.67
LeftElbow	23.81	28.35	-36.48
RightElbow	35.63	3.10	37.57
LeftWrist	23.87	28.58	-36.36
RightWrist	35.65	3.57	37.91
LeftHand	23.87	28.58	-36.36
RightHand	35.65	3.57	37.91
LeftHip	3.72	39.39	1.03
RightHip	0.43	-16.63	1.55
LeftKnee	-9.64	39.39	1.03
RightKnee	-5.75	-16.63	1.55
LeftAnkle	-9.64	39.39	1.03
RightAnkle	-5.75	-16.63	1.55
263
Head	-6.35	14.53	0.45
Neck	-6.35	14.53	0.45
LeftCollar	-6.35	14.53	0.45
Torso	-6.35	14.53	0.45
root	133.93	13.26	2738.09	-4.09	8.43	1.72
LeftShoulder	21.61	-8.98	-48.43
RightShoulder	45.37	30.02	55.28
LeftElbow	24.41	28.35	-32.73
RightElbow	38.15	4.02	31.56
LeftWrist	24.45	28.51	-32.65
RightWrist	38.18	4.52	31.95
LeftHand	24.45	28.51	-32.65
RightHand	38.18	4.52	31.95
LeftHip	3.78	40.54	1.27
RightHip	-0.33	-16.14	1.44
LeftKnee	-9.37	40.54	1.27
RightKnee	-5.63	-16.14	1.44
LeftAnkle	-9.37	40.54	1.27
RightAnkle	-5.63	-16.14	1.44
264
Head	-6.46	14.25	0.39
Neck	-6.46	14.25	0.39
LeftCollar	-6.46	14.25	0.39
Torso	-6.46	14.25	0.39
root	134.16	10.93	2738.01	-4.24	8.51	1.67
LeftShoulder	21.94	-9.28	-45.32
RightShoulder	43.53	31.70	50.18
LeftElbow	24.76	28.31	-29.27
RightElbow	36.01	4.64	27.02
LeftWrist	24.81	28.49	-29.17
RightWrist	36.04	5.14	27.38
LeftHand	24.81	28.49	-29.17
RightHand	36.04	5.14	27.38
LeftHip	3.84	40.68	1.44
RightHip	-0.69	-16.03	1.41
LeftKnee	-9.32	40.68	1.44
RightKnee	-5.69	-16.03	1.41
LeftAnkle	-9.32	40.68	1.44
RightAnkle	-5.69	-16.03	1.41
265
Head	-6.33	14.66	0.48
Neck	-6.33	14.66	0.48
LeftCollar	-6.33	14.66	0.48
Torso	-6.33	14.66	0.48
root	134.40	8.97	2737.96	-4.58	8.78	1.47
LeftShoulder	22.53	-8.02	-41.25
RightShoulder	37.80	30.98	41.58
LeftElbow	25.30	27.41	-25.67
RightElbow	32.10	8.52	25.13
LeftWrist	25.29	27.37	-25.69
RightWrist	32.23	9.86	25.98
LeftHand	25.29	27.37	-25.69
RightHand	32.23	9.86	25.98
LeftHip	3.80	41.38	1.63
RightHip	-1.21	-16.02	1.50
LeftKnee	-9.26	41.38	1.63
RightKnee	-6.21	-16.02	1.50
LeftAnkle	-9.26	41.38	1.63
RightAnkle	-6.21	-16.02	1.50
266
Head	-6.25	15.24	0.56
Neck	-6.25	15.24	0.56
LeftCollar	-6.25	15.24	0.56
Torso	-6.25	15.24	0.56
root	134.91	5.87	2737.89	-4.85	7.48	1.41
LeftShoulder	19.99	-6.54	-34.03
RightShoulder	29.65	35.05	30.79
LeftElbow	22.71	28.37	-20.41
RightElbow	24.28	9.99	17.17
LeftWrist	22.68	28.25	-20.47
RightWrist	24.39	11.22	17.73
LeftHand	22.68	28.25	-20.47
RightHand	24.39	11.22	17.73
LeftHip	3.96	41.30	1.98
RightHip	-0.66	-18.00	1.53
LeftKnee	-7.94	41.30	1.98
RightKnee	-5.66	-18.00	1.53
LeftAnkle	-7.94	41.30	1.98
RightAnkle	-5.66	-18.00	1.53
267
Head	-6.31	15.29	0.63
Neck	-6.31	15.29	0.63
LeftCollar	-6.31	15.29	0.63
Torso	-6.31	15.29	0.63
root	135.17	5.28	2737.86	-4.86	7.31	1.45
LeftShoulder	24.65	-6.32	-30.47
RightShoulder	26.08	35.46	25.28
LeftElbow	28.36	29.24	-12.80
RightElbow	21.61	13.51	14.71
LeftWrist	28.38	29.30	-12.76
RightWrist	21.77	15.13	15.38
LeftHand	28.38	29.30	-12.76
RightHand	21.77	15.13	15.38
LeftHip	4.00	41.89	1.97
RightHip	-0.72	-18.35	1.58
LeftKnee	-8.03	41.89	1.97
RightKnee	-5.72	-18.35	1.58
LeftAnkle	-8.03	41.89	1.97
RightAnkle	-5.72	-18.35	1.58
